<svg width="70" height="42" viewBox="0 0 70 42" fill="none" xmlns="http://www.w3.org/2000/svg">
<path d="M34.1162 5.87037C34.1162 6.55297 34.0086 7.1986 33.7933 7.80725C33.578 8.4159 33.2211 8.94208 32.7225 9.38577C32.224 9.82946 31.6291 10.0513 30.938 10.0513C30.0768 10.0513 29.295 9.72422 28.5925 9.07006C27.89 8.4159 27.3688 7.64513 27.0289 6.75775C26.689 5.87037 26.519 5.01143 26.519 4.18093C26.519 3.49833 26.6267 2.8527 26.8419 2.24405C27.0572 1.6354 27.4141 1.10923 27.9127 0.665536C28.4112 0.221845 29.0061 0 29.6973 0C30.5697 0 31.3544 0.32708 32.0512 0.981239C32.748 1.6354 33.2664 2.40333 33.6063 3.28502C33.9462 4.16671 34.1162 5.0285 34.1162 5.87037ZM28.3036 14.1128C28.3036 15.0229 28.0657 15.8136 27.5898 16.4848C27.1139 17.156 26.4397 17.4917 25.5673 17.4917C24.7061 17.4917 23.9045 17.176 23.1623 16.5445C22.4202 15.9131 21.8508 15.1537 21.4542 14.2664C21.0577 13.379 20.8594 12.5144 20.8594 11.6725C20.8594 10.7623 21.0973 9.96882 21.5732 9.29191C22.0491 8.615 22.7233 8.27654 23.5957 8.27654C24.4568 8.27654 25.2585 8.59224 26.0006 9.22365C26.7428 9.85505 27.3122 10.6173 27.7087 11.5104C28.1053 12.4034 28.3036 13.2709 28.3036 14.1128ZM35 13.652C36.337 13.652 37.7817 14.2066 39.334 15.3159C40.8863 16.4251 42.1836 17.7732 43.226 19.3603C44.2684 20.9473 44.7897 22.395 44.7897 23.7033C44.7897 24.2267 44.6933 24.6618 44.5007 25.0088C44.3081 25.3558 44.0333 25.6118 43.6764 25.7767C43.3195 25.9417 42.9541 26.0555 42.5802 26.118C42.2063 26.1806 41.7757 26.2119 41.2885 26.2119C40.518 26.2119 39.4558 25.9559 38.1018 25.444C36.7477 24.932 35.7138 24.676 35 24.676C34.2522 24.676 33.1616 24.9292 31.7283 25.4354C30.295 25.9417 29.1591 26.1948 28.3206 26.1948C26.2471 26.1948 25.2103 25.3643 25.2103 23.7033C25.2103 22.7249 25.5276 21.6356 26.1621 20.4354C26.7966 19.2351 27.5869 18.1401 28.533 17.1504C29.4791 16.1606 30.5414 15.3301 31.7198 14.6589C32.8982 13.9876 33.9916 13.652 35 13.652ZM39.062 10.0513C38.3709 10.0513 37.776 9.82946 37.2775 9.38577C36.7789 8.94208 36.422 8.4159 36.2067 7.80725C35.9914 7.1986 35.8838 6.55297 35.8838 5.87037C35.8838 5.0285 36.0537 4.16671 36.3937 3.28502C36.7336 2.40333 37.252 1.6354 37.9488 0.981239C38.6456 0.32708 39.4303 0 40.3027 0C40.9939 0 41.5888 0.221845 42.0873 0.665536C42.5859 1.10923 42.9428 1.6354 43.158 2.24405C43.3733 2.8527 43.481 3.49833 43.481 4.18093C43.481 5.01143 43.311 5.87037 42.9711 6.75775C42.6312 7.64513 42.11 8.4159 41.4075 9.07006C40.705 9.72422 39.9232 10.0513 39.062 10.0513ZM46.4043 8.27654C47.2767 8.27654 47.9509 8.615 48.4268 9.29191C48.9027 9.96882 49.1406 10.7623 49.1406 11.6725C49.1406 12.5144 48.9423 13.379 48.5458 14.2664C48.1492 15.1537 47.5798 15.9131 46.8377 16.5445C46.0955 17.176 45.2939 17.4917 44.4327 17.4917C43.5603 17.4917 42.8861 17.156 42.4102 16.4848C41.9343 15.8136 41.6964 15.0229 41.6964 14.1128C41.6964 13.2709 41.8947 12.4034 42.2913 11.5104C42.6878 10.6173 43.2572 9.85505 43.9993 9.22365C44.7415 8.59224 45.5431 8.27654 46.4043 8.27654Z" fill="black"/>
<path d="M1.03468 38.2119V30.3332H2.32803V37.1125H5.67457V38.2119H1.03468ZM14.0328 34.2618C14.0328 34.8689 13.9556 35.4222 13.8011 35.9216C13.6502 36.4174 13.4221 36.8449 13.1167 37.2041C12.8113 37.5598 12.4287 37.8347 11.9689 38.0287C11.509 38.2227 10.9701 38.3197 10.3522 38.3197C9.72347 38.3197 9.17739 38.2227 8.71394 38.0287C8.25408 37.8347 7.87147 37.558 7.56609 37.1988C7.26431 36.8395 7.03798 36.4102 6.88709 35.9108C6.7362 35.4114 6.66075 34.8582 6.66075 34.251C6.66075 33.4391 6.79368 32.7313 7.05953 32.1278C7.32898 31.5206 7.73675 31.05 8.28283 30.7158C8.8325 30.3781 9.52588 30.2093 10.363 30.2093C11.1821 30.2093 11.8629 30.3763 12.4054 30.7105C12.9479 31.0446 13.3538 31.5152 13.6233 32.1224C13.8963 32.7259 14.0328 33.4391 14.0328 34.2618ZM8.01877 34.2618C8.01877 34.8689 8.1014 35.3953 8.26666 35.8407C8.43192 36.2826 8.6852 36.6239 9.0265 36.8646C9.3714 37.1018 9.81329 37.2203 10.3522 37.2203C10.8947 37.2203 11.3366 37.1018 11.6779 36.8646C12.0192 36.6239 12.2707 36.2826 12.4323 35.8407C12.594 35.3953 12.6748 34.8689 12.6748 34.2618C12.6748 33.3385 12.4898 32.6164 12.1198 32.0954C11.7533 31.5709 11.1677 31.3086 10.363 31.3086C9.82407 31.3086 9.38038 31.4272 9.03189 31.6643C8.687 31.9014 8.43192 32.2409 8.26666 32.6828C8.1014 33.1211 8.01877 33.6474 8.01877 34.2618ZM21.5666 30.3332L18.8128 38.2119H17.4441L14.6903 30.3332H16.016L17.6758 35.2695C17.7261 35.4132 17.78 35.5875 17.8374 35.7922C17.8985 35.997 17.9542 36.2036 18.0045 36.412C18.0584 36.6203 18.0997 36.8054 18.1285 36.967C18.1572 36.8054 18.1967 36.6203 18.247 36.412C18.3009 36.2036 18.3566 35.997 18.4141 35.7922C18.4715 35.5875 18.5254 35.4114 18.5757 35.2641L20.2409 30.3332H21.5666ZM27.0633 38.2119H22.6013V30.3332H27.0633V31.4218H23.8946V33.5612H26.8639V34.6444H23.8946V37.1179H27.0633V38.2119ZM33.9881 30.2147C34.3941 30.2147 34.7498 30.2811 35.0552 30.4141C35.3641 30.547 35.6048 30.741 35.7773 30.9961C35.9497 31.2476 36.036 31.5547 36.036 31.9176C36.036 32.4026 35.8851 32.8121 35.5833 33.1463C35.2815 33.4804 34.9007 33.7786 34.4408 34.0408L36.3 35.8515C36.4761 35.6108 36.6216 35.3468 36.7365 35.0593C36.8515 34.7683 36.9503 34.463 37.0329 34.1432H38.3424C38.2311 34.5887 38.0766 35.0288 37.879 35.4635C37.6814 35.8946 37.4317 36.2898 37.1299 36.6491L38.7304 38.2119H37.1084L36.3108 37.4305C36.088 37.6101 35.8491 37.7664 35.5941 37.8993C35.3426 38.0323 35.0677 38.1364 34.7695 38.2119C34.4714 38.2837 34.1426 38.3197 33.7834 38.3197C33.2337 38.3197 32.7595 38.2316 32.3607 38.0556C31.9619 37.8796 31.6547 37.6281 31.4392 37.3011C31.2272 36.9706 31.1212 36.579 31.1212 36.1264C31.1212 35.7491 31.1841 35.4258 31.3098 35.1563C31.4392 34.8833 31.6224 34.6444 31.8595 34.4396C32.0966 34.2312 32.3804 34.0336 32.711 33.8468C32.5313 33.642 32.3751 33.4427 32.2421 33.2487C32.1092 33.0547 32.0068 32.8553 31.935 32.6505C31.8667 32.4421 31.8326 32.2194 31.8326 31.9822C31.8326 31.6158 31.9224 31.3014 32.102 31.0392C32.2816 30.7733 32.5331 30.5703 32.8565 30.4302C33.1798 30.2865 33.557 30.2147 33.9881 30.2147ZM33.46 34.6174C33.2517 34.7504 33.072 34.8851 32.9211 35.0216C32.7702 35.1545 32.6535 35.3018 32.5709 35.4635C32.4918 35.6252 32.4523 35.8138 32.4523 36.0294C32.4523 36.3994 32.5816 36.6922 32.8403 36.9078C33.1026 37.1233 33.4403 37.2311 33.8534 37.2311C34.2163 37.2311 34.5342 37.1772 34.8073 37.0694C35.0839 36.9581 35.3246 36.8197 35.5294 36.6545L33.46 34.6174ZM33.9666 31.217C33.7115 31.217 33.4906 31.2835 33.3038 31.4164C33.1205 31.5493 33.0289 31.7559 33.0289 32.0361C33.0289 32.2625 33.0882 32.4762 33.2068 32.6774C33.3289 32.875 33.4978 33.0888 33.7133 33.3187C34.0905 33.1103 34.3708 32.9056 34.554 32.7044C34.7408 32.5032 34.8342 32.2697 34.8342 32.0038C34.8342 31.7523 34.7498 31.5583 34.5809 31.4218C34.4121 31.2853 34.2073 31.217 33.9666 31.217ZM46.0163 31.3194C45.6391 31.3194 45.3014 31.3877 45.0032 31.5242C44.7086 31.6607 44.4589 31.8583 44.2541 32.117C44.0493 32.3721 43.893 32.6828 43.7853 33.0493C43.6775 33.4121 43.6236 33.8217 43.6236 34.2779C43.6236 34.8887 43.7098 35.415 43.8823 35.8569C44.0547 36.2952 44.317 36.6329 44.6691 36.87C45.0211 37.1036 45.4666 37.2203 46.0055 37.2203C46.3396 37.2203 46.6648 37.188 46.9809 37.1233C47.2971 37.0586 47.624 36.9706 47.9617 36.8593V37.9586C47.642 38.0843 47.3186 38.176 46.9917 38.2334C46.6648 38.2909 46.2875 38.3197 45.86 38.3197C45.0553 38.3197 44.387 38.1526 43.8553 37.8185C43.3272 37.4844 42.932 37.0137 42.6698 36.4066C42.4111 35.7994 42.2818 35.0881 42.2818 34.2726C42.2818 33.6762 42.3644 33.1301 42.5296 32.6343C42.6949 32.1385 42.9356 31.711 43.2518 31.3517C43.5679 30.9889 43.9577 30.7105 44.4212 30.5165C44.8882 30.3189 45.4217 30.2201 46.0217 30.2201C46.4169 30.2201 46.8049 30.265 47.1857 30.3548C47.5701 30.441 47.9258 30.565 48.2527 30.7266L47.8 31.7936C47.527 31.6643 47.2414 31.5529 46.9432 31.4595C46.645 31.3661 46.336 31.3194 46.0163 31.3194ZM54.5362 38.2119L53.7656 36.024H50.7532L49.9826 38.2119H48.6192L51.5508 30.3009H52.9842L55.9104 38.2119H54.5362ZM53.4315 34.9138L52.6824 32.7583C52.6537 32.6649 52.6124 32.5337 52.5585 32.3649C52.5046 32.1924 52.4507 32.0182 52.3968 31.8421C52.3429 31.6625 52.298 31.5116 52.2621 31.3895C52.2262 31.5368 52.1813 31.702 52.1274 31.8852C52.0771 32.0649 52.0268 32.2337 51.9765 32.3918C51.9298 32.5499 51.8939 32.672 51.8687 32.7583L51.1143 34.9138H53.4315ZM59.1654 30.3332C59.8444 30.3332 60.4048 30.4159 60.8467 30.5811C61.2922 30.7464 61.6227 30.9979 61.8383 31.3356C62.0574 31.6733 62.167 32.1026 62.167 32.6235C62.167 33.0115 62.0952 33.3421 61.9514 33.6151C61.8077 33.8881 61.6191 34.1145 61.3856 34.2941C61.1521 34.4737 60.9024 34.6174 60.6365 34.7252L62.873 38.2119H61.4125L59.5102 35.054H58.2438V38.2119H56.9505V30.3332H59.1654ZM59.0791 31.411H58.2438V33.9869H59.1384C59.7384 33.9869 60.1731 33.8756 60.4425 33.6528C60.7156 33.4301 60.8521 33.1014 60.8521 32.6666C60.8521 32.2104 60.7066 31.887 60.4156 31.6966C60.1282 31.5062 59.6827 31.411 59.0791 31.411ZM68.4613 38.2119H63.9992V30.3332H68.4613V31.4218H65.2926V33.5612H68.2619V34.6444H65.2926V37.1179H68.4613V38.2119Z" fill="black"/>
</svg>
