<svg width="30" height="27" viewBox="0 0 30 27" fill="none" xmlns="http://www.w3.org/2000/svg">
<path d="M14.1162 5.87037C14.1162 6.55297 14.0086 7.1986 13.7933 7.80725C13.578 8.4159 13.2211 8.94208 12.7225 9.38577C12.224 9.82946 11.6291 10.0513 10.938 10.0513C10.0768 10.0513 9.29503 9.72422 8.59253 9.07006C7.89003 8.4159 7.36882 7.64513 7.0289 6.75775C6.68898 5.87037 6.51902 5.01143 6.51902 4.18093C6.51902 3.49833 6.62666 2.8527 6.84195 2.24405C7.05723 1.6354 7.41414 1.10923 7.91269 0.665536C8.41124 0.221845 9.0061 0 9.69726 0C10.5697 0 11.3544 0.32708 12.0512 0.981239C12.748 1.6354 13.2664 2.40333 13.6063 3.28502C13.9462 4.16671 14.1162 5.0285 14.1162 5.87037ZM8.3036 14.1128C8.3036 15.0229 8.06565 15.8136 7.58977 16.4848C7.11388 17.156 6.43971 17.4917 5.56725 17.4917C4.70612 17.4917 3.90448 17.176 3.16232 16.5445C2.42017 15.9131 1.8508 15.1537 1.45423 14.2664C1.05766 13.379 0.859375 12.5144 0.859375 11.6725C0.859375 10.7623 1.09732 9.96882 1.5732 9.29191C2.04909 8.615 2.72326 8.27654 3.59572 8.27654C4.45685 8.27654 5.25849 8.59224 6.00065 9.22365C6.7428 9.85505 7.31217 10.6173 7.70874 11.5104C8.10531 12.4034 8.3036 13.2709 8.3036 14.1128ZM15 13.652C16.337 13.652 17.7817 14.2066 19.334 15.3159C20.8863 16.4251 22.1836 17.7732 23.226 19.3603C24.2684 20.9473 24.7897 22.395 24.7897 23.7033C24.7897 24.2267 24.6933 24.6618 24.5007 25.0088C24.3081 25.3558 24.0333 25.6118 23.6764 25.7767C23.3195 25.9417 22.9541 26.0555 22.5802 26.118C22.2063 26.1806 21.7757 26.2119 21.2885 26.2119C20.518 26.2119 19.4558 25.9559 18.1018 25.444C16.7477 24.932 15.7138 24.676 15 24.676C14.2522 24.676 13.1616 24.9292 11.7283 25.4354C10.295 25.9417 9.15906 26.1948 8.32059 26.1948C6.24709 26.1948 5.21034 25.3643 5.21034 23.7033C5.21034 22.7249 5.52759 21.6356 6.16211 20.4354C6.79662 19.2351 7.58693 18.1401 8.53304 17.1504C9.47915 16.1606 10.5414 15.3301 11.7198 14.6589C12.8982 13.9876 13.9916 13.652 15 13.652ZM19.062 10.0513C18.3709 10.0513 17.776 9.82946 17.2775 9.38577C16.7789 8.94208 16.422 8.4159 16.2067 7.80725C15.9914 7.1986 15.8838 6.55297 15.8838 5.87037C15.8838 5.0285 16.0537 4.16671 16.3937 3.28502C16.7336 2.40333 17.252 1.6354 17.9488 0.981239C18.6456 0.32708 19.4303 0 20.3027 0C20.9939 0 21.5888 0.221845 22.0873 0.665536C22.5859 1.10923 22.9428 1.6354 23.158 2.24405C23.3733 2.8527 23.481 3.49833 23.481 4.18093C23.481 5.01143 23.311 5.87037 22.9711 6.75775C22.6312 7.64513 22.11 8.4159 21.4075 9.07006C20.705 9.72422 19.9232 10.0513 19.062 10.0513ZM26.4043 8.27654C27.2767 8.27654 27.9509 8.615 28.4268 9.29191C28.9027 9.96882 29.1406 10.7623 29.1406 11.6725C29.1406 12.5144 28.9423 13.379 28.5458 14.2664C28.1492 15.1537 27.5798 15.9131 26.8377 16.5445C26.0955 17.176 25.2939 17.4917 24.4327 17.4917C23.5603 17.4917 22.8861 17.156 22.4102 16.4848C21.9343 15.8136 21.6964 15.0229 21.6964 14.1128C21.6964 13.2709 21.8947 12.4034 22.2913 11.5104C22.6878 10.6173 23.2572 9.85505 23.9993 9.22365C24.7415 8.59224 25.5431 8.27654 26.4043 8.27654Z" fill="black"/>
</svg>
