<svg width="22" height="23" viewBox="0 0 22 23" fill="none" xmlns="http://www.w3.org/2000/svg">
<path d="M19.6488 17.8913C19.1082 17.3736 18.582 16.8409 18.0709 16.294C17.6416 15.8578 17.383 15.5404 17.383 15.5404L14.1511 13.9973C15.445 12.53 16.1591 10.6411 16.1595 8.68484C16.1595 4.23106 12.5352 0.605942 8.07975 0.605942C3.62434 0.605942 0 4.23106 0 8.68484C0 13.1386 3.62434 16.7637 8.07975 16.7637C10.1147 16.7637 11.9696 16.002 13.3928 14.7567L14.936 17.9883C14.936 17.9883 15.2534 18.2468 15.6897 18.6761C16.1364 19.0951 16.7239 19.6618 17.2872 20.2538L18.8547 21.8604L19.5518 22.6059L22 20.158L21.2544 19.4609C20.8169 19.0316 20.2328 18.4615 19.6488 17.8913ZM8.07975 14.4555C4.89748 14.4555 2.3085 11.8668 2.3085 8.68484C2.3085 5.50291 4.89748 2.9142 8.07975 2.9142C11.262 2.9142 13.851 5.50291 13.851 8.68484C13.851 11.8668 11.262 14.4555 8.07975 14.4555Z" fill="black"/>
</svg>
