<svg width="20" height="20" viewBox="0 0 20 20" fill="none" xmlns="http://www.w3.org/2000/svg">
<path d="M19.7025 4.11416C19.0067 4.4225 18.2592 4.63083 17.4734 4.725C18.2842 4.23983 18.8908 3.47622 19.18 2.57666C18.4183 3.02916 17.5845 3.34766 16.7151 3.51833C16.1304 2.89405 15.3559 2.48027 14.512 2.34123C13.668 2.20218 12.8018 2.34566 12.0477 2.74938C11.2937 3.15309 10.694 3.79447 10.3418 4.57392C9.98966 5.35337 9.90466 6.22729 10.1 7.06C8.55646 6.98249 7.04641 6.58129 5.6679 5.88242C4.2894 5.18355 3.07325 4.20263 2.09838 3.00333C1.76505 3.57833 1.57338 4.245 1.57338 4.955C1.57301 5.59416 1.73041 6.22353 2.03162 6.78728C2.33282 7.35102 2.76852 7.8317 3.30005 8.18667C2.68361 8.16705 2.08078 8.00048 1.54172 7.70083V7.75083C1.54165 8.64728 1.85174 9.51615 2.41937 10.21C2.98699 10.9038 3.77719 11.3799 4.65588 11.5575C4.08404 11.7123 3.4845 11.7351 2.90255 11.6242C3.15046 12.3955 3.63338 13.07 4.28369 13.5533C4.934 14.0365 5.71915 14.3043 6.52922 14.3192C5.15408 15.3987 3.45579 15.9842 1.70755 15.9817C1.39787 15.9817 1.08845 15.9637 0.780884 15.9275C2.55545 17.0685 4.62117 17.674 6.73088 17.6717C13.8726 17.6717 17.7767 11.7567 17.7767 6.62666C17.7767 6.46 17.7726 6.29166 17.7651 6.125C18.5245 5.57581 19.18 4.89574 19.7009 4.11666L19.7025 4.11416Z" fill="#B3B3B3"/>
</svg>
